<svg width="24" height="24" viewBox="0 0 24 24" fill="none" xmlns="http://www.w3.org/2000/svg">
<g id="Icon">
<path id="Vector" d="M9.22222 9.58824H9.23333M14.7778 9.58824H14.7889M9.22222 13.0588C9.58431 13.4306 10.0165 13.7259 10.4935 13.9275C10.9705 14.1291 11.4826 14.2329 12 14.2329C12.5174 14.2329 13.0295 14.1291 13.5065 13.9275C13.9835 13.7259 14.4157 13.4306 14.7778 13.0588M18.6667 3C19.5507 3 20.3986 3.35326 21.0237 3.98205C21.6488 4.61085 22 5.46369 22 6.35294V15.2941C22 16.1834 21.6488 17.0362 21.0237 17.665C20.3986 18.2938 19.5507 18.6471 18.6667 18.6471H13.1111L7.55556 22V18.6471H5.33333C4.44928 18.6471 3.60143 18.2938 2.97631 17.665C2.35119 17.0362 2 16.1834 2 15.2941V6.35294C2 5.46369 2.35119 4.61085 2.97631 3.98205C3.60143 3.35326 4.44928 3 5.33333 3H18.6667Z" stroke="#1268D9" stroke-width="1.5" stroke-linecap="round" stroke-linejoin="round"/>
</g>
</svg>
