<svg width="24" height="24" viewBox="0 0 24 24" fill="none" xmlns="http://www.w3.org/2000/svg">
<g id="Icon">
<path id="Vector" d="M12 9H17M12 12H20M12 15H14M7.47697 10.3261C7.58683 9.71739 7.34514 8.5 5.4995 8.5M5.4995 8.5C3.65386 8.5 3.41217 9.92029 3.52203 10.6304C3.63202 11.0362 3.852 11.8478 5.4995 12.1522C7.147 12.4565 7.36748 12.9638 7.47747 13.3696C7.58733 14.0797 7.34564 15.5 5.5 15.5M5.4995 8.5V8M3.52253 13.6739C3.41267 14.2826 3.65436 15.5 5.5 15.5M5.5 15.5V16M22 18H2C1.44772 18 1 17.5523 1 17V7C1 6.44772 1.44772 6 2 6H22C22.5523 6 23 6.44772 23 7V17C23 17.5523 22.5523 18 22 18Z" stroke="#093675" stroke-width="1.5" stroke-linecap="round" stroke-linejoin="round"/>
</g>
</svg>
