<svg width="124" height="24" viewBox="0 0 124 24" fill="none" xmlns="http://www.w3.org/2000/svg">
<g id="logo">
<path id="Vector" d="M45.7575 0C43.4499 0 41.1941 0.696221 39.2753 2.00062C37.3565 3.30502 35.8611 5.15901 34.978 7.32815C34.0949 9.49732 33.8638 11.8841 34.3141 14.1869C34.7642 16.4896 35.8755 18.6049 37.5073 20.265C39.139 21.9252 41.218 23.0559 43.4813 23.5138C45.7446 23.9719 48.0906 23.7369 50.2226 22.8383C52.3546 21.9399 54.1769 20.4183 55.4589 18.4661C56.741 16.514 57.4253 14.2188 57.4253 11.871C57.425 8.72271 56.1957 5.7034 54.0076 3.47722C51.8195 1.25103 48.8519 0.000261497 45.7575 0ZM53.5396 17.8252L46.5727 14.1578C46.426 14.0801 46.2588 14.0523 46.0954 14.0781C45.932 14.104 45.781 14.1824 45.6645 14.3018L40.1253 19.9503C40.1022 19.9741 40.0716 19.9887 40.0389 19.9913C40.0062 19.994 39.9737 19.9845 39.9471 19.9648C39.9207 19.9451 39.9021 19.9163 39.8948 19.8837C39.8875 19.8513 39.8919 19.8171 39.9072 19.7876L43.5108 12.7003C43.5873 12.5511 43.6149 12.3811 43.5896 12.2149C43.5643 12.0486 43.4875 11.895 43.3703 11.7763L37.8165 6.13863C37.7937 6.11517 37.7798 6.08419 37.7773 6.05123C37.7748 6.01827 37.784 5.9855 37.8031 5.95879C37.8223 5.93208 37.8501 5.91318 37.8817 5.90547C37.9133 5.89778 37.9466 5.90177 37.9755 5.91675L44.9424 9.5832C45.0891 9.66086 45.2563 9.68871 45.4197 9.66283C45.5831 9.63694 45.7341 9.5586 45.8506 9.4392L51.3918 3.79166C51.4148 3.76837 51.4453 3.75421 51.4776 3.75171C51.5101 3.7492 51.5422 3.75852 51.5685 3.77799C51.5947 3.79745 51.6133 3.8258 51.6209 3.85794C51.6285 3.89008 51.6245 3.92391 51.6098 3.95337L48.0062 11.0446C47.9297 11.1938 47.9021 11.3638 47.9274 11.5301C47.9527 11.6963 48.0296 11.8499 48.1468 11.9686L53.6947 17.6033C53.716 17.6268 53.7288 17.657 53.7308 17.6889C53.7328 17.7207 53.7241 17.7524 53.7058 17.7784C53.6876 17.8045 53.6611 17.8233 53.6309 17.8319C53.6005 17.8404 53.5684 17.838 53.5396 17.8252Z" fill="#006BD3"/>
<path id="Vector_2" d="M58.3379 0.668945H65.7449V16.7181H73.4813L71.4003 23.2078H58.3379V0.668945Z" fill="#006BD3"/>
<path id="Vector_3" d="M0 0.67041V23.2093H16.7611V16.7196H7.40984V14.8804H15.5223V9.00122H7.40984V7.16011H16.7611V0.67041H0Z" fill="#006BD3"/>
<path id="Vector_4" d="M30.3948 16.7177C27.3222 16.7177 25.0639 14.9723 25.0639 11.937C25.0639 8.90164 27.2873 7.1562 30.3948 7.1562H33.8007V0.666504H28.7063C21.2548 0.666504 17.2441 5.46696 17.2441 11.932C17.2441 18.3971 21.2887 23.2034 28.7403 23.2034H33.8007V16.7137H30.3948V16.7177Z" fill="#006BD3"/>
<path id="Vector_5" d="M98.2375 0.65625H109.912C114.28 0.65625 116.891 3.19651 116.891 6.53553C116.891 9.36669 115.489 10.913 113.673 11.5185V11.5746C115.75 12.1831 117.597 13.9413 117.597 16.7558C117.597 20.7525 114.963 23.206 109.863 23.206H98.2324V0.65625H98.2375ZM105.463 14.1218V18.0841H107.93C109.444 18.0841 110.105 17.4351 110.105 16.1019C110.105 14.8426 109.479 14.1218 107.93 14.1218H105.463ZM105.454 5.66972V9.10243H107.718C109.115 9.10243 109.65 8.44862 109.65 7.38459C109.65 6.24462 109.093 5.66774 107.718 5.66774H105.454V5.66972Z" fill="#006BD3"/>
<path id="Vector_6" d="M97.3573 23.2081H89.2999L88.5004 20.1944H81.5222L80.7468 23.2081H72.6875L79.6719 0.645508H90.4044L97.3573 23.2081ZM85.0699 6.88078H84.973L82.976 14.5558H87.0649L85.0699 6.88078Z" fill="#006BD3"/>
<path id="Vector_7" d="M119.967 5.26601C118.708 5.26601 117.748 4.35187 117.748 3.00581C117.748 1.65974 118.708 0.745605 119.967 0.745605C121.227 0.745605 122.187 1.65974 122.187 3.00581C122.187 4.35187 121.227 5.26601 119.967 5.26601ZM119.967 1.03454C118.878 1.03454 118.048 1.84218 118.048 3.00679C118.048 4.17141 118.878 4.97905 119.967 4.97905C121.056 4.97905 121.886 4.17141 121.886 3.00679C121.886 1.84218 121.058 1.03454 119.967 1.03454ZM120.385 3.14485L120.931 4.21579H120.552L120.023 3.17148H119.494V4.21579H119.168V1.71891H120.163C120.607 1.71891 120.95 1.94473 120.95 2.43681C120.957 2.60455 120.903 2.76898 120.799 2.8993C120.695 3.02963 120.548 3.11692 120.385 3.14485ZM120.147 2.01179H119.496V2.85888H120.109C120.46 2.85888 120.627 2.72673 120.627 2.43977C120.627 2.15281 120.453 2.01179 120.147 2.01179Z" fill="#006BD3"/>
</g>
</svg>
